<svg width="2276" height="2025" viewBox="0 0 2276 2025" fill="none" xmlns="http://www.w3.org/2000/svg">
<g clip-path="url(#clip0_9_31)">
<rect x="192" y="69" width="1892" height="1762" rx="330" fill="black"/>
<g filter="url(#filter0_d_9_31)">
<path d="M854.811 1534.16H550.858L945.653 366.438H1322.17L1716.96 1534.16H1413.01L1138.19 660.65H1129.05L854.811 1534.16ZM814.247 1074.6H1449.57V1288.98H814.247V1074.6Z" fill="#514EFF"/>
<mask id="mask0_9_31" style="mask-type:alpha" maskUnits="userSpaceOnUse" x="527" y="349" width="1214" height="1202">
<path d="M1415.94 1530.16L1341.32 1292.98H1449.57H1453.57V1288.98V1074.6V1070.6H1449.57H1271.36L1142.01 659.449L1141.13 656.65H1138.19H1129.05H1126.12L1125.24 659.452L996.154 1070.6H814.246H810.246V1074.6V1288.98V1292.98H814.246H926.335L851.873 1530.16H556.432L948.522 370.438H1319.3L1711.39 1530.16H1415.94ZM818.246 1078.6H993.643L928.847 1284.98H818.246V1078.6ZM1330.42 1284.98H937.232L1002.03 1078.6H1265.49L1330.42 1284.98ZM1273.88 1078.6H1445.57V1284.98H1338.81L1273.88 1078.6Z" fill="black" stroke="#5F52B3" stroke-width="8"/>
<path d="M854.81 1513.43H847.948L911.908 1309.71H938.646L868.182 1534.15L858.81 1531.22V1517.43V1513.43H854.81ZM858.81 1539.6L865.786 1541.78L864.185 1546.88H858.81V1539.6ZM850.81 1537.1V1546.88H554.858V1539.73L565.461 1543.29L569.247 1544.57L570.527 1540.79L577.069 1521.43H837.051L835.002 1527.96L833.803 1531.78L837.625 1532.98L850.81 1537.1ZM546.858 1537.03V1546.88H533.09L537.488 1533.88L546.858 1537.03ZM546.858 1528.59L540.05 1526.3L932.281 366.158L941.652 369.313V383.163V387.163H945.652H952.112L571.329 1513.43H550.858H546.858V1517.43V1528.59ZM564.227 1534.44L554.858 1531.28V1521.43H568.624L564.227 1534.44ZM941.158 1301.71H914.419L922.41 1276.26H949.148L941.158 1301.71ZM949.652 379.163V372.007L956.461 374.299L954.817 379.163H949.652ZM818.246 1061.87H981.332L973.342 1087.32H835.005V1074.6V1070.6H831.005H818.246V1061.87ZM818.246 1078.6H827.005V1087.32H818.246V1078.6ZM814.246 1095.32H827.005V1268.26H814.246H810.246V1272.26V1284.98H801.487V1078.6H810.246V1091.32V1095.32H814.246ZM801.487 1292.98H810.246V1301.71H801.487V1292.98ZM818.246 1301.71V1292.98H831.005H835.005V1288.98V1276.26H914.025L906.034 1301.71H818.246ZM818.246 1276.26H827.005V1284.98H818.246V1276.26ZM951.66 1268.26H924.921L979.215 1095.32H1005.95L951.66 1268.26ZM949.543 1301.71L957.533 1276.26H1310.11L1318.12 1301.71H949.543ZM1727.77 1526.3L1720.96 1528.59V1517.43V1513.43H1716.96H1696.49L1315.71 387.163H1322.17H1326.17V383.163V369.312L1335.53 366.158L1727.77 1526.3ZM1332.97 358.579L1326.17 360.87V353.712H1331.33L1332.97 358.579ZM1318.17 353.712V363.565L1305.01 367.995L1301.21 369.273L1302.5 373.067L1304.56 379.163H963.262L965.322 373.067L966.605 369.273L962.81 367.995L949.652 363.565V353.712H1318.17ZM936.489 353.712H941.652V360.871L934.843 358.579L936.489 353.712ZM1318.17 379.163H1313L1311.36 374.299L1318.17 372.006V379.163ZM1151.57 660.651L1275.28 1053.87H1248.53L1137.83 701.989L1148.86 666.849L1150.06 663.028L1147.02 662.077L1151.57 660.651ZM1149.17 653.02L1142.19 655.204V647.925H1147.56L1149.17 653.02ZM981.727 1087.32L989.717 1061.87H1016.46L1008.47 1087.32H981.727ZM1326.51 1301.71L1318.5 1276.26H1345.24L1353.25 1301.71H1326.51ZM1445.57 1301.71H1361.64L1353.63 1276.26H1428.81V1288.98V1292.98H1432.81H1445.57V1301.71ZM1453.57 1301.71V1292.98H1462.33V1301.71H1453.57ZM1462.33 1284.98H1453.57V1272.26V1268.26H1449.57H1436.81V1095.32H1449.57H1453.57V1091.32V1078.6H1462.33V1284.98ZM1462.33 1061.87V1070.6H1453.57V1061.87H1462.33ZM1445.57 1061.87V1070.6H1432.81H1428.81V1074.6V1087.32H1294.19L1286.18 1061.87H1445.57ZM1251.05 1061.87H1277.79L1285.8 1087.32H1259.06L1251.05 1061.87ZM1135.91 681.375L1133.63 688.649L1131.34 681.375H1135.91ZM1134.19 647.925V657.71L1133.62 657.888L1133.05 657.71V647.925H1134.19ZM1125.05 647.925V655.208L1118.08 653.027L1119.68 647.925H1125.05ZM1115.68 660.659L1120.23 662.083L1117.19 663.038L1118.39 666.858L1129.44 701.991L1018.97 1053.87H992.229L1115.68 660.659ZM1016.85 1087.32L1024.84 1061.87H1242.66L1250.67 1087.32H1016.85ZM1342.73 1268.26H1315.98L1261.57 1095.32H1288.32L1342.73 1268.26ZM1134.19 673.375H1133.05V666.451L1133.63 666.271L1134.19 666.448V673.375ZM1445.57 1087.32H1436.81V1078.6H1445.57V1087.32ZM1436.81 1284.98V1276.26H1445.57V1284.98H1436.81ZM1399.64 1534.16L1329.02 1309.71H1355.77L1419.86 1513.43H1413.01H1409.01V1517.43V1531.22L1399.64 1534.16ZM1402.04 1541.79L1409.01 1539.6V1546.88H1403.64L1402.04 1541.79ZM1417.01 1546.88V1537.1L1430.19 1532.96L1434.01 1531.77L1432.81 1527.95L1430.76 1521.43H1690.75L1697.29 1540.79L1698.57 1544.57L1702.36 1543.29L1712.96 1539.72V1546.88H1417.01ZM1734.73 1546.88H1720.96V1537.03L1730.33 1533.88L1734.73 1546.88ZM1712.96 1521.43V1531.28L1703.59 1534.44L1699.19 1521.43H1712.96ZM1417.01 1521.43H1422.38L1423.98 1526.53L1417.01 1528.71V1521.43ZM810.246 1070.6H801.487V1061.87H810.246V1070.6ZM850.81 1528.72L843.834 1526.54L845.436 1521.43H850.81V1528.72Z" fill="black" stroke="#5F52B3" stroke-width="8"/>
</mask>
<g mask="url(#mask0_9_31)">
<path d="M4961.64 2546.38C4771.71 2442.63 4572.31 2336.91 4367.22 2230.86C4577.25 2110.14 4783.83 1980.86 4982.28 1850.36C4947.7 2082.15 4939.09 2319.44 4961.64 2546.38ZM4971.15 2560.69C5614.92 2912.88 6147.66 3241.75 6420.61 3483.56C6489.07 3544.2 6541.02 3599.23 6574.27 3647.64C6607.62 3696.19 6621.68 3737.38 6615.72 3770.62C6609.83 3803.49 6584.04 3830.01 6534 3848.61C6483.93 3867.23 6410.34 3877.58 6310.61 3878.44C5872.34 3882.23 5555.94 3730.91 5339.8 3488.92C5125.07 3248.52 5008.98 2918.26 4971.15 2560.69ZM4992.89 1833.79C5070.59 1332.82 5269.44 859.8 5535.79 576.085C5669.72 433.417 5820.51 338.847 5981.32 312.345C6142.03 285.862 6313.32 327.261 6488.59 457.595C6915.87 775.307 7227.59 1039.09 7446.62 1256.54C7665.71 1474.06 7791.82 1644.97 7848.21 1776.92C7904.55 1908.75 7891.01 2000.8 7832.33 2062.06C7773.22 2123.8 7667.29 2155.47 7536.08 2163.68C7273.94 2180.1 6914.74 2102.68 6640.93 1991.83C6504.01 1936.39 6388.83 1872.76 6317.89 1808.62C6282.4 1776.54 6258.28 1744.59 6247.82 1713.77C6237.44 1683.17 6240.46 1653.51 6259.62 1625.33C6407.18 1408.32 6520.53 1234.15 6603.11 1097.34C6685.65 960.588 6737.56 860.971 6762.1 793.157C6774.34 759.31 6779.93 732.957 6778.84 713.692C6778.29 704.008 6776.04 695.877 6771.88 689.469C6767.68 682.998 6761.7 678.546 6754.2 676.013C6739.49 671.046 6719.03 673.485 6693.92 681.535C6668.64 689.643 6637.9 703.696 6602.2 722.912C6459.47 799.728 6234.92 960.435 5956.44 1160.9L5923.67 1184.49C5653.86 1378.74 5335.65 1607.85 4992.89 1833.79ZM1002.71 683.284C746.052 583.465 538.717 511.238 401.532 475.564C1013.47 549.886 1704.07 657.888 2116.57 776.218C2223.87 807 2312.18 838.431 2375.33 870.071C2406.91 885.893 2432.05 901.694 2450.1 917.386C2468.2 933.117 2478.83 948.434 2482.06 963.226C2485.25 977.786 2481.41 992.53 2469.04 1007.67C2456.56 1022.93 2435.51 1038.42 2404.71 1053.97C2343.31 1084.97 2244.4 1115.6 2101.48 1145.36C1687.9 961.806 1309.84 802.732 1002.71 683.284ZM796.193 1308.31C1410.77 1261.84 1832.03 1209.43 2100.59 1153.72C2805.84 1466.78 3614.25 1850.96 4350.5 2231.23C3897.74 2490.51 3429.52 2709.16 2991.94 2813.96C2461.81 2940.92 1801.59 2929.46 1173.8 2835.84C546.013 2742.21 -48.9094 2566.49 -448.402 2365.28C-648.222 2264.63 -798.718 2157.82 -880.129 2052.05C-920.804 1999.2 -944.054 1946.84 -947.83 1895.82C-951.598 1844.9 -935.997 1794.87 -898.168 1746.49C-822.285 1649.44 -657.153 1559.3 -381.2 1483.7C-105.455 1408.16 280.201 1347.32 796.193 1308.31Z" fill="#7B66FF" stroke="black" stroke-width="8"/>
</g>
<mask id="mask1_9_31" style="mask-type:alpha" maskUnits="userSpaceOnUse" x="-2803" y="-4883" width="7907" height="7013">
<path d="M3499.57 2072.5C3514.53 2091.58 3529.43 2110.52 3544.25 2129.29C3531.26 2116.62 3516.31 2097.55 3499.57 2072.5C2712.16 1068.56 1748.07 -334.551 2746.61 301.095C2504.88 -357.018 2246.61 -1116.73 2021.56 -1848.17C1913.09 -1927.19 1807.6 -1997.57 1706.34 -2057.64C1487.13 -2187.67 1249.58 -2308.74 1003.44 -2417.22C275.042 -1712.26 -704.569 -1042.06 -1487.58 -615.427C-1021.58 -241.393 -830.052 336.044 -1489.7 -614.275C-2414.82 -110.501 -3064.7 52.7095 -2699.81 -469.462C-2298.86 -1043.23 -1827.63 -885.505 -1494.11 -620.64C-1580.41 -745.145 -1681.14 -895.564 -1797.56 -1075.71C-3260.7 -3339.79 -877.705 -3246.29 1003.44 -2417.22C1255.62 -2661.29 1477.69 -2909.52 1651.07 -3153.25C1333.29 -4402.67 1256.4 -5242.38 1781.33 -4730.45C2207.09 -4315.2 2073.85 -3747.6 1651.07 -3153.25C1753.55 -2750.31 1881.08 -2304.75 2021.56 -1848.17C3942.66 -448.736 6803 3658.69 3793.47 1110.15C3319.52 708.785 2979.63 449.427 2746.61 301.095C3063.32 1163.37 3351.62 1851.23 3499.57 2072.5Z" fill="url(#paint0_radial_9_31)"/>
</mask>
<g mask="url(#mask1_9_31)">
<path d="M854.811 1534.16H550.858L945.653 366.437H1322.17L1716.96 1534.16H1413.01L1138.19 660.649H1129.05L854.811 1534.16ZM814.247 1074.6H1449.57V1288.98H814.247V1074.6Z" fill="#5E3BE9"/>
<path d="M854.811 1534.16V1547.54H864.659L867.605 1538.16L854.811 1534.16ZM550.858 1534.16L538.155 1529.88L532.185 1547.54H550.858V1534.16ZM945.653 366.437V353.057H936.026L932.949 362.159L945.653 366.437ZM1322.17 366.437L1334.87 362.159L1331.79 353.057H1322.17V366.437ZM1716.96 1534.16V1547.54H1735.63L1729.66 1529.88L1716.96 1534.16ZM1413.01 1534.16L1400.22 1538.17L1403.16 1547.54H1413.01V1534.16ZM1138.19 660.65L1150.99 656.639L1148.04 647.27H1138.19V660.65ZM1129.05 660.65V647.27H1119.21L1116.26 656.649L1129.05 660.65ZM814.247 1074.6V1061.22H800.84V1074.6H814.247ZM1449.57 1074.6H1462.98V1061.22H1449.57V1074.6ZM1449.57 1288.98V1302.36H1462.98V1288.98H1449.57ZM814.247 1288.98H800.84V1302.36H814.247V1288.98ZM854.811 1520.78H550.858V1547.54H854.811V1520.78ZM563.562 1538.44L958.356 370.716L932.949 362.159L538.155 1529.88L563.562 1538.44ZM945.653 379.817H1322.17V353.057H945.653V379.817ZM1309.46 370.716L1704.26 1538.44L1729.66 1529.88L1334.87 362.159L1309.46 370.716ZM1716.96 1520.78H1413.01V1547.54H1716.96V1520.78ZM1425.8 1530.15L1150.99 656.639L1125.4 664.657L1400.22 1538.17L1425.8 1530.15ZM1138.19 647.27H1129.05V674.03H1138.19V647.27ZM1116.26 656.649L842.017 1530.16L867.605 1538.16L1141.85 664.65L1116.26 656.649ZM814.247 1087.98H1449.57V1061.22H814.247V1087.98ZM1436.17 1074.6V1288.98H1462.98V1074.6H1436.17ZM1449.57 1275.6H814.247V1302.36H1449.57V1275.6ZM827.654 1288.98V1074.6H800.84V1288.98H827.654Z" fill="#5E3BE9"/>
</g>
</g>
</g>
<defs>
<filter id="filter0_d_9_31" x="523.516" y="349.712" width="1220.79" height="1209.17" filterUnits="userSpaceOnUse" color-interpolation-filters="sRGB">
<feFlood flood-opacity="0" result="BackgroundImageFix"/>
<feColorMatrix in="SourceAlpha" type="matrix" values="0 0 0 0 0 0 0 0 0 0 0 0 0 0 0 0 0 0 127 0" result="hardAlpha"/>
<feOffset dy="4"/>
<feGaussianBlur stdDeviation="2"/>
<feComposite in2="hardAlpha" operator="out"/>
<feColorMatrix type="matrix" values="0 0 0 0 0 0 0 0 0 0 0 0 0 0 0 0 0 0 0.25 0"/>
<feBlend mode="normal" in2="BackgroundImageFix" result="effect1_dropShadow_9_31"/>
<feBlend mode="normal" in="SourceGraphic" in2="effect1_dropShadow_9_31" result="shape"/>
</filter>
<radialGradient id="paint0_radial_9_31" cx="0" cy="0" r="1" gradientUnits="userSpaceOnUse" gradientTransform="translate(999.989 393.361) rotate(-45.6008) scale(2390.73 4354.64)">
<stop stop-color="#5957B1"/>
<stop offset="0.53125" stop-color="#483A9E"/>
<stop offset="1" stop-color="#6967DE"/>
</radialGradient>
<clipPath id="clip0_9_31">
<rect width="2276" height="2025" fill="white"/>
</clipPath>
</defs>
</svg>
